# xmcd CD database file
#
# Track frame offsets:
#	150
#	13942
#	30032
#	50300
#	64402
#	79325
#	89417
#	103210
#	117467
#	132845
#	146470
#	162725
#	181977
#	194730
#	209725
#	222550
#
# Disc length: 3127 seconds
#
# Revision: 0
# Processed by: cddbd v1.4PL0 Copyright (c) Steve Scherf et al.
# Submitted via: Feurio! 1.64 - http://www.feurio.com
#
DISCID=fa0c3510
DTITLE=Various Artist - 100 % Country
DYEAR=1900
DGENRE=Country
TTITLE0=Tom Astor - Ich bin wie ich bin
TTITLE1=Linda Feller - Andre Mütter haben auch ein schönes Kind
TTITLE2=Jonny Hill - Hallo Teddybär
TTITLE3=Dagmar - Dafür bin ich
TTITLE4=Truck Stop - Emmylou, Emmylou
TTITLE5=Gudrun Lange and Kactus - Ich tanz im Regen
TTITLE6=Joe Hodgkings Boss band - Portland daheim
TTITLE7=Hanna and Daana - It's countrytime in Germany
TTITLE8=Gunter Gabriel - Truck Stop, Tom Astor und ich
TTITLE9=Frank baum and Country Green - Hallo Nachbar, guten Morgen
TTITLE10=Linda Feller - Könnt' ich noch einmal leben
TTITLE11=Larry Schuba and Western Union - Countrymusicfieber
TTITLE12=Country Rose and Ralf Paulsen - Hallo Country Rose
TTITLE13=Jonny Hill - Lass mich sein wie ich bin
TTITLE14=Greyhounds - Typen mit dem Cowboyhut
TTITLE15=Dagmar - Heimatlos
EXTD=
EXTT0=
EXTT1=
EXTT2=
EXTT3=
EXTT4=
EXTT5=
EXTT6=
EXTT7=
EXTT8=
EXTT9=
EXTT10=
EXTT11=
EXTT12=
EXTT13=
EXTT14=
EXTT15=
PLAYORDER=
